<svg width="73" height="48" viewBox="0 0 73 48" fill="none" xmlns="http://www.w3.org/2000/svg">
<rect width="73" height="48" rx="4" fill="#1976D2"/>
<path d="M34.696 25.248C34.624 25.248 33.04 25.248 32.32 25.248C31.936 25.248 31.816 25.104 31.816 24.744C31.816 23.784 31.816 22.8 31.816 21.84C31.816 21.456 31.96 21.336 32.32 21.336H34.696C34.696 21.264 34.696 19.872 34.696 19.224C34.696 18.264 34.864 17.352 35.344 16.512C35.848 15.648 36.568 15.072 37.48 14.736C38.08 14.52 38.68 14.424 39.328 14.424H41.68C42.016 14.424 42.16 14.568 42.16 14.904V17.64C42.16 17.976 42.016 18.12 41.68 18.12C41.032 18.12 40.384 18.12 39.736 18.144C39.088 18.144 38.752 18.456 38.752 19.128C38.728 19.848 38.752 20.544 38.752 21.288H41.536C41.92 21.288 42.064 21.432 42.064 21.816V24.72C42.064 25.104 41.944 25.224 41.536 25.224C40.672 25.224 38.824 25.224 38.752 25.224V33.048C38.752 33.456 38.632 33.6 38.2 33.6C37.192 33.6 36.208 33.6 35.2 33.6C34.84 33.6 34.696 33.456 34.696 33.096C34.696 30.576 34.696 25.32 34.696 25.248Z" fill="white"/>
</svg>
