<svg width="73" height="48" viewBox="0 0 73 48" fill="none" xmlns="http://www.w3.org/2000/svg">
<g clip-path="url(#clip0_34_368)">
<path d="M48.0938 21.9135L38.3045 21.9131C37.8722 21.9131 37.5218 22.2634 37.5218 22.6957V25.823C37.5218 26.2552 37.8722 26.6056 38.3044 26.6056H43.8172C43.2135 28.1722 42.0869 29.4842 40.6494 30.3178L43 34.387C46.7707 32.2062 49 28.3799 49 24.0965C49 23.4866 48.9551 23.0506 48.8652 22.5597C48.7968 22.1867 48.473 21.9135 48.0938 21.9135Z" fill="#167EE6"/>
<path d="M37 31.3043C34.3022 31.3043 31.947 29.8303 30.6821 27.6491L26.613 29.9944C28.6837 33.5833 32.5628 36 37 36C39.1768 36 41.2307 35.4139 43 34.3926V34.387L40.6494 30.3178C39.5742 30.9414 38.3299 31.3043 37 31.3043Z" fill="#12B347"/>
<path d="M43 34.3926V34.387L40.6494 30.3178C39.5741 30.9413 38.33 31.3043 37 31.3043V36C39.1767 36 41.2308 35.4139 43 34.3926Z" fill="#0F993E"/>
<path d="M29.6957 24C29.6957 22.6702 30.0586 21.4261 30.682 20.3509L26.613 18.0056C25.586 19.7693 25 21.8177 25 24C25 26.1823 25.586 28.2307 26.613 29.9944L30.682 27.6491C30.0586 26.5739 29.6957 25.3298 29.6957 24Z" fill="#FFD500"/>
<path d="M37 16.6957C38.7593 16.6957 40.3753 17.3208 41.6375 18.3606C41.9488 18.6171 42.4014 18.5986 42.6867 18.3134L44.9024 16.0976C45.2261 15.774 45.203 15.2442 44.8573 14.9443C42.7425 13.1097 39.991 12 37 12C32.5628 12 28.6837 14.4167 26.613 18.0056L30.6821 20.3509C31.947 18.1697 34.3022 16.6957 37 16.6957Z" fill="#FF4B26"/>
<path d="M41.6374 18.3606C41.9488 18.6171 42.4015 18.5986 42.6866 18.3134L44.9024 16.0976C45.226 15.774 45.2029 15.2442 44.8573 14.9443C42.7425 13.1096 39.991 12 37 12V16.6957C38.7592 16.6957 40.3752 17.3208 41.6374 18.3606Z" fill="#D93F21"/>
</g>
<rect x="0.5" y="0.5" width="72" height="47" rx="3.5" stroke="#D9D9D9"/>
<defs>
<clipPath id="clip0_34_368">
<rect width="24" height="24" fill="white" transform="translate(25 12)"/>
</clipPath>
</defs>
</svg>
