<svg width="73" height="48" viewBox="0 0 73 48" fill="none" xmlns="http://www.w3.org/2000/svg">
<rect width="73" height="48" rx="4" fill="#FFEB3B"/>
<g clip-path="url(#clip0_40_23)">
<path d="M52.4742 5H21.5258C19.5786 5 18 6.57855 18 8.5258V39.4742C18 41.4214 19.5786 43 21.5258 43H52.4742C54.4214 43 56 41.4214 56 39.4742V8.5258C56 6.57855 54.4214 5 52.4742 5Z" fill="#FFEB3B"/>
<path d="M34.489 21.3357L33.8045 23.2659H35.1712L34.489 21.3357ZM34.489 21.3357L33.8045 23.2659H35.1712L34.489 21.3357ZM37 13.116C30.4428 13.116 25.125 17.2787 25.125 22.4152C25.125 25.7381 27.3467 28.6507 30.6911 30.2959C29.0308 35.9851 28.0549 36.3565 34.8906 31.5698C35.5894 31.6682 36.2943 31.7173 37 31.7166C43.5572 31.7166 48.875 27.5517 48.875 22.4152C48.875 17.2787 43.5572 13.116 37 13.116ZM30.4342 25.6625C29.2489 25.6625 29.9484 24.0237 29.7498 20.9708C29.318 20.8974 28.0074 21.2644 28.0074 20.3036C28.0085 20.1265 28.0798 19.957 28.2057 19.8324C28.3316 19.7077 28.5017 19.6381 28.6789 19.6386C31.1705 19.8157 32.8589 19.1744 32.8589 20.3036C32.8589 21.2817 31.598 20.8887 31.1186 20.9708C30.92 24.013 31.6174 25.6625 30.4342 25.6625ZM36.8769 25.5589C35.8125 26.0425 35.7866 24.9522 35.5318 24.4793H33.444C33.187 24.963 33.1655 26.0511 32.0989 25.5589C31.2978 25.1918 32.6019 23.3285 33.5757 20.308C33.638 20.115 33.7599 19.9469 33.9238 19.8276C34.0877 19.7083 34.2852 19.644 34.4879 19.644C34.6906 19.644 34.8881 19.7083 35.052 19.8276C35.2159 19.9469 35.3378 20.115 35.4001 20.308C36.3933 23.3868 37.6823 25.1918 36.8769 25.5589ZM38.1422 25.5589C36.9957 25.5589 37.6931 24.0108 37.4944 20.3123C37.4944 19.4119 38.8935 19.4141 38.8935 20.3123V24.3152C39.5542 24.4037 41.0051 23.9892 41.0051 24.9392C40.9965 25.9432 39.4376 25.4358 38.1422 25.5632V25.5589ZM44.4769 25.3624L42.8706 23.2465L42.6331 23.484V24.9716C42.6331 25.0616 42.6153 25.1506 42.5807 25.2337C42.5462 25.3167 42.4955 25.3922 42.4317 25.4556C42.3679 25.519 42.2922 25.5691 42.2089 25.6032C42.1256 25.6372 42.0364 25.6544 41.9465 25.6539C40.7568 25.6539 41.4693 23.9395 41.262 20.3166C41.2632 20.1358 41.3358 19.9628 41.464 19.8354C41.5923 19.708 41.7657 19.6365 41.9465 19.6365C42.9807 19.6365 42.5338 21.0982 42.6309 21.7805C44.5741 19.9258 44.5244 19.7293 44.9239 19.7293C45.4744 19.7293 45.8113 20.4137 45.4442 20.7765L43.8832 22.3267L45.5694 24.5462C46.12 25.2652 45.021 26.0857 44.4769 25.3667V25.3624ZM33.8045 23.2659H35.1712L34.489 21.3357L33.8045 23.2659ZM34.489 21.3357L33.8045 23.2659H35.1712L34.489 21.3357ZM34.489 21.3357L33.8045 23.2659H35.1712L34.489 21.3357Z" fill="#3E2723"/>
</g>
<defs>
<clipPath id="clip0_40_23">
<rect width="38" height="38" fill="white" transform="translate(18 5)"/>
</clipPath>
</defs>
</svg>
