<svg width="98" height="29" viewBox="0 0 98 29" fill="none" xmlns="http://www.w3.org/2000/svg">
<path d="M13.4399 12.4653V15.3218H4.1626V12.4653H13.4399ZM5.24902 5.22656V23H1.58691V5.22656H5.24902ZM16.0522 5.22656V23H12.4023V5.22656H16.0522ZM25.0977 23.2441C24.0723 23.2441 23.1527 23.0814 22.3389 22.7559C21.5251 22.4222 20.8333 21.9624 20.2637 21.3765C19.7021 20.7905 19.2708 20.111 18.9697 19.3379C18.6686 18.5566 18.5181 17.7266 18.5181 16.8477V16.3594C18.5181 15.3584 18.6605 14.4429 18.9453 13.6128C19.2301 12.7827 19.637 12.0625 20.166 11.4521C20.7031 10.8418 21.3542 10.3739 22.1191 10.0483C22.8841 9.71468 23.7467 9.54785 24.707 9.54785C25.6429 9.54785 26.473 9.70247 27.1973 10.0117C27.9215 10.321 28.5278 10.7604 29.0161 11.3301C29.5125 11.8997 29.8869 12.5833 30.1392 13.3809C30.3914 14.1702 30.5176 15.0492 30.5176 16.0176V17.4824H20.0195V15.1387H27.063V14.8701C27.063 14.3818 26.9735 13.9465 26.7944 13.564C26.6235 13.1733 26.3631 12.8641 26.0132 12.6362C25.6632 12.4084 25.2157 12.2944 24.6704 12.2944C24.2065 12.2944 23.8078 12.3962 23.4741 12.5996C23.1405 12.8031 22.8678 13.0879 22.6562 13.4541C22.4528 13.8203 22.2982 14.2516 22.1924 14.748C22.0947 15.2363 22.0459 15.7734 22.0459 16.3594V16.8477C22.0459 17.3766 22.1191 17.8649 22.2656 18.3125C22.4202 18.7601 22.6359 19.1466 22.9126 19.4722C23.1974 19.7977 23.5392 20.05 23.938 20.229C24.3449 20.408 24.8047 20.4976 25.3174 20.4976C25.9521 20.4976 26.5422 20.3755 27.0874 20.1313C27.6408 19.8791 28.1169 19.5007 28.5156 18.9961L30.2246 20.8516C29.9479 21.2503 29.5695 21.6328 29.0894 21.999C28.6174 22.3652 28.0477 22.6663 27.3804 22.9023C26.7131 23.1302 25.9521 23.2441 25.0977 23.2441ZM36.2305 4.25V23H32.7026V4.25H36.2305ZM42.8467 4.25V23H39.3188V4.25H42.8467ZM45.1904 16.5303V16.2739C45.1904 15.3055 45.3288 14.4144 45.6055 13.6006C45.8822 12.7786 46.285 12.0666 46.814 11.4644C47.3429 10.8621 47.994 10.3942 48.7671 10.0605C49.5402 9.71875 50.4272 9.54785 51.4282 9.54785C52.4292 9.54785 53.3203 9.71875 54.1016 10.0605C54.8828 10.3942 55.5379 10.8621 56.0669 11.4644C56.604 12.0666 57.0109 12.7786 57.2876 13.6006C57.5643 14.4144 57.7026 15.3055 57.7026 16.2739V16.5303C57.7026 17.4906 57.5643 18.3817 57.2876 19.2036C57.0109 20.0174 56.604 20.7295 56.0669 21.3398C55.5379 21.9421 54.8869 22.41 54.1138 22.7437C53.3407 23.0773 52.4536 23.2441 51.4526 23.2441C50.4517 23.2441 49.5605 23.0773 48.7793 22.7437C48.0062 22.41 47.3511 21.9421 46.814 21.3398C46.285 20.7295 45.8822 20.0174 45.6055 19.2036C45.3288 18.3817 45.1904 17.4906 45.1904 16.5303ZM48.7061 16.2739V16.5303C48.7061 17.0837 48.7549 17.6004 48.8525 18.0806C48.9502 18.5607 49.1048 18.9839 49.3164 19.3501C49.5361 19.7082 49.821 19.9889 50.1709 20.1924C50.5208 20.3958 50.9481 20.4976 51.4526 20.4976C51.9409 20.4976 52.36 20.3958 52.71 20.1924C53.0599 19.9889 53.3407 19.7082 53.5522 19.3501C53.7638 18.9839 53.9185 18.5607 54.0161 18.0806C54.1219 17.6004 54.1748 17.0837 54.1748 16.5303V16.2739C54.1748 15.7368 54.1219 15.2323 54.0161 14.7603C53.9185 14.2801 53.7598 13.8569 53.54 13.4907C53.3285 13.1164 53.0477 12.8234 52.6978 12.6118C52.3478 12.4002 51.9246 12.2944 51.4282 12.2944C50.9318 12.2944 50.5086 12.4002 50.1587 12.6118C49.8169 12.8234 49.5361 13.1164 49.3164 13.4907C49.1048 13.8569 48.9502 14.2801 48.8525 14.7603C48.7549 15.2323 48.7061 15.7368 48.7061 16.2739Z" fill="#333333"/>
<path d="M96.7813 9.98469L95.1345 10.8852L94.2341 12.5319L93.3336 10.8852L91.6869 9.98469L93.3336 9.08422L94.2341 7.4375L95.1345 9.08422L96.7813 9.98469Z" fill="#F7D694"/>
<path d="M82.7188 21.7034L81.072 22.6039L80.1716 24.2506L79.2711 22.6039L77.6244 21.7034L79.2711 20.803L80.1716 19.1562L81.072 20.803L82.7188 21.7034Z" fill="#F7D694"/>
<path d="M89.6881 13.2659L86.8292 14.8292L85.2659 17.6881L83.7027 14.8292L80.8438 13.2659L83.7027 11.7027L85.2659 8.84375L86.8292 11.7027L89.6881 13.2659Z" fill="#FCD884"/>
<path d="M93.5 22.2341L91.8533 23.1345L90.9528 24.7813L90.0524 23.1345L88.4056 22.2341L90.0524 21.3336L90.9528 19.6869L91.8533 21.3336L93.5 22.2341Z" fill="#FFCD02"/>
<path d="M80.3131 5.76594L78.6664 6.66641L77.7659 8.31312L76.8655 6.66641L75.2188 5.76594L76.8655 4.86547L77.7659 3.21875L78.6664 4.86547L80.3131 5.76594Z" fill="#FFCD02"/>
</svg>
