<svg width="98" height="29" viewBox="0 0 98 29" fill="none" xmlns="http://www.w3.org/2000/svg">
<path d="M13.0127 20.1436V23H4.06494V20.1436H13.0127ZM5.24902 5.22656V23H1.58691V5.22656H5.24902ZM14.3311 16.5303V16.2739C14.3311 15.3055 14.4694 14.4144 14.7461 13.6006C15.0228 12.7786 15.4256 12.0666 15.9546 11.4644C16.4836 10.8621 17.1346 10.3942 17.9077 10.0605C18.6808 9.71875 19.5679 9.54785 20.5688 9.54785C21.5698 9.54785 22.4609 9.71875 23.2422 10.0605C24.0234 10.3942 24.6785 10.8621 25.2075 11.4644C25.7446 12.0666 26.1515 12.7786 26.4282 13.6006C26.7049 14.4144 26.8433 15.3055 26.8433 16.2739V16.5303C26.8433 17.4906 26.7049 18.3817 26.4282 19.2036C26.1515 20.0174 25.7446 20.7295 25.2075 21.3398C24.6785 21.9421 24.0275 22.41 23.2544 22.7437C22.4813 23.0773 21.5942 23.2441 20.5933 23.2441C19.5923 23.2441 18.7012 23.0773 17.9199 22.7437C17.1468 22.41 16.4917 21.9421 15.9546 21.3398C15.4256 20.7295 15.0228 20.0174 14.7461 19.2036C14.4694 18.3817 14.3311 17.4906 14.3311 16.5303ZM17.8467 16.2739V16.5303C17.8467 17.0837 17.8955 17.6004 17.9932 18.0806C18.0908 18.5607 18.2454 18.9839 18.457 19.3501C18.6768 19.7082 18.9616 19.9889 19.3115 20.1924C19.6615 20.3958 20.0887 20.4976 20.5933 20.4976C21.0815 20.4976 21.5007 20.3958 21.8506 20.1924C22.2005 19.9889 22.4813 19.7082 22.6929 19.3501C22.9045 18.9839 23.0591 18.5607 23.1567 18.0806C23.2625 17.6004 23.3154 17.0837 23.3154 16.5303V16.2739C23.3154 15.7368 23.2625 15.2323 23.1567 14.7603C23.0591 14.2801 22.9004 13.8569 22.6807 13.4907C22.4691 13.1164 22.1883 12.8234 21.8384 12.6118C21.4884 12.4002 21.0653 12.2944 20.5688 12.2944C20.0724 12.2944 19.6493 12.4002 19.2993 12.6118C18.9575 12.8234 18.6768 13.1164 18.457 13.4907C18.2454 13.8569 18.0908 14.2801 17.9932 14.7603C17.8955 15.2323 17.8467 15.7368 17.8467 16.2739ZM37.3657 9.79199H40.5518V22.5605C40.5518 23.765 40.2832 24.7863 39.7461 25.6245C39.2171 26.4709 38.4766 27.1097 37.5244 27.541C36.5723 27.9805 35.4655 28.2002 34.2041 28.2002C33.6507 28.2002 33.0648 28.127 32.4463 27.9805C31.8359 27.834 31.25 27.6061 30.6885 27.2969C30.1351 26.9876 29.6712 26.597 29.2969 26.125L30.8472 24.0498C31.2541 24.5218 31.7261 24.888 32.2632 25.1484C32.8003 25.417 33.3944 25.5513 34.0454 25.5513C34.6802 25.5513 35.2173 25.4333 35.6567 25.1973C36.0962 24.9694 36.4339 24.6317 36.6699 24.1841C36.9059 23.7446 37.0239 23.2116 37.0239 22.585V12.8438L37.3657 9.79199ZM28.479 16.5547V16.2983C28.479 15.2892 28.6011 14.3737 28.8452 13.5518C29.0975 12.7217 29.4515 12.0096 29.9072 11.4155C30.3711 10.8215 30.9326 10.3617 31.5918 10.0361C32.251 9.71061 32.9956 9.54785 33.8257 9.54785C34.7046 9.54785 35.4411 9.71061 36.0352 10.0361C36.6292 10.3617 37.1175 10.8255 37.5 11.4277C37.8825 12.0218 38.1795 12.7257 38.3911 13.5396C38.6108 14.3452 38.7817 15.2282 38.9038 16.1885V16.75C38.7817 17.6696 38.5986 18.5241 38.3545 19.3135C38.1104 20.1029 37.7889 20.7946 37.3901 21.3887C36.9914 21.9746 36.495 22.4303 35.9009 22.7559C35.3149 23.0814 34.6151 23.2441 33.8013 23.2441C32.9875 23.2441 32.251 23.0773 31.5918 22.7437C30.9408 22.41 30.3833 21.9421 29.9194 21.3398C29.4556 20.7376 29.0975 20.0296 28.8452 19.2158C28.6011 18.402 28.479 17.515 28.479 16.5547ZM31.9946 16.2983V16.5547C31.9946 17.0999 32.0475 17.6086 32.1533 18.0806C32.2591 18.5526 32.4219 18.9717 32.6416 19.3379C32.8695 19.696 33.1502 19.9767 33.4839 20.1802C33.8257 20.3755 34.2285 20.4731 34.6924 20.4731C35.3353 20.4731 35.8602 20.3389 36.2671 20.0703C36.674 19.7936 36.9792 19.4152 37.1826 18.9351C37.3861 18.4549 37.5041 17.9015 37.5366 17.2749V15.6758C37.5203 15.1631 37.4512 14.7033 37.3291 14.2964C37.207 13.8813 37.0361 13.5273 36.8164 13.2344C36.5967 12.9414 36.3118 12.7135 35.9619 12.5508C35.612 12.388 35.1969 12.3066 34.7168 12.3066C34.2529 12.3066 33.8501 12.4124 33.5083 12.624C33.1746 12.8275 32.8939 13.1082 32.666 13.4663C32.4463 13.8244 32.2795 14.2476 32.1655 14.7358C32.0516 15.216 31.9946 15.7368 31.9946 16.2983ZM46.9971 9.79199V23H43.4692V9.79199H46.9971ZM43.2495 6.34961C43.2495 5.83691 43.4285 5.41374 43.7866 5.08008C44.1447 4.74642 44.6248 4.57959 45.2271 4.57959C45.8211 4.57959 46.2972 4.74642 46.6553 5.08008C47.0215 5.41374 47.2046 5.83691 47.2046 6.34961C47.2046 6.8623 47.0215 7.28548 46.6553 7.61914C46.2972 7.9528 45.8211 8.11963 45.2271 8.11963C44.6248 8.11963 44.1447 7.9528 43.7866 7.61914C43.4285 7.28548 43.2495 6.8623 43.2495 6.34961ZM53.3447 12.6118V23H49.8291V9.79199H53.125L53.3447 12.6118ZM52.832 15.9321H51.8799C51.8799 14.9556 52.006 14.0767 52.2583 13.2954C52.5106 12.506 52.8646 11.8346 53.3203 11.2812C53.776 10.7197 54.3172 10.2925 54.9438 9.99951C55.5786 9.6984 56.2866 9.54785 57.0679 9.54785C57.6864 9.54785 58.252 9.63737 58.7646 9.81641C59.2773 9.99544 59.7168 10.2803 60.083 10.6709C60.4574 11.0615 60.7422 11.5783 60.9375 12.2212C61.141 12.8641 61.2427 13.6494 61.2427 14.5771V23H57.7026V14.5649C57.7026 13.979 57.6213 13.5233 57.4585 13.1978C57.2957 12.8722 57.0557 12.6444 56.7383 12.5142C56.429 12.3758 56.0465 12.3066 55.5908 12.3066C55.1188 12.3066 54.7078 12.4002 54.3579 12.5874C54.0161 12.7746 53.7313 13.035 53.5034 13.3687C53.2837 13.6942 53.1169 14.0767 53.0029 14.5161C52.889 14.9556 52.832 15.4276 52.832 15.9321Z" fill="#333333"/>
<path d="M96.7813 9.98469L95.1345 10.8852L94.2341 12.5319L93.3336 10.8852L91.6869 9.98469L93.3336 9.08422L94.2341 7.4375L95.1345 9.08422L96.7813 9.98469Z" fill="#F7D694"/>
<path d="M82.7188 21.7034L81.072 22.6039L80.1716 24.2506L79.2711 22.6039L77.6244 21.7034L79.2711 20.803L80.1716 19.1562L81.072 20.803L82.7188 21.7034Z" fill="#F7D694"/>
<path d="M89.6881 13.2659L86.8292 14.8292L85.2659 17.6881L83.7027 14.8292L80.8438 13.2659L83.7027 11.7027L85.2659 8.84375L86.8292 11.7027L89.6881 13.2659Z" fill="#FCD884"/>
<path d="M93.5 22.2341L91.8533 23.1345L90.9528 24.7813L90.0524 23.1345L88.4056 22.2341L90.0524 21.3336L90.9528 19.6869L91.8533 21.3336L93.5 22.2341Z" fill="#FFCD02"/>
<path d="M80.3131 5.76594L78.6664 6.66641L77.7659 8.31312L76.8655 6.66641L75.2188 5.76594L76.8655 4.86547L77.7659 3.21875L78.6664 4.86547L80.3131 5.76594Z" fill="#FFCD02"/>
</svg>
